<svg xmlns="http://www.w3.org/2000/svg" viewBox="20 0 60 100" width="64" height="64">
  <defs>
    <linearGradient id="gold" x1="0%" y1="0%" x2="100%" y2="100%">
      <stop offset="0" stop-color="#905e26"/>
      <stop offset="0.5" stop-color="#f5ec9b"/>
      <stop offset="1" stop-color="#905e26"/>
    </linearGradient>
  </defs>
  <g fill="url(#gold)">
    <path d="M32.458,48.731c-1.78-0.538-3.291-1.305-4.506-2.287V79.9c1.157,1.094,2.671,1.938,4.506,2.522V48.731z"/>
    <path d="M24.98,84.014v2.163c1.029,7.89,10.092,8.733,12.17,8.823v-4.682C35.262,90.234,27.665,89.544,24.98,84.014z"/>
    <path d="M24.98,36.424v44.602c0.99,7.492,10.09,8.343,12.169,8.438V42.726C35.263,42.641,27.665,41.952,24.98,36.424z M27.094,44.466l0.729,0.717c1.279,1.258,3.022,2.205,5.179,2.815l0.312,0.088v35.48l-0.544-0.152c-2.295-0.643-4.161-1.661-5.549-3.025l-0.128-0.127L27.094,44.466L27.094,44.466z"/>
    <polygon points="68.691,27.391 43.909,42.404 43.909,81.457 68.691,66.441"/>
    <path d="M71.584,15.919l-9.162-6.426V5L24.98,27.684v5.752c0.992,7.509,10.092,8.346,12.169,8.435v-5.36c-1.815-0.08-8.927-0.738-11.404-6.131L60.357,9.403l10.188,7.145L38.007,36.262v58.49L75.02,72.326V13.837L71.584,15.919z M69.549,66.924L43.051,82.979V41.921L69.549,25.87V66.924z"/>
  </g>
</svg>
