
        <svg xmlns="http://www.w3.org/2000/svg" xmlns:xlink="http://www.w3.org/1999/xlink" version="1.1" width="3133.3333333333335" 
        height="3013.3333333333335" viewBox="0 0 3133.3333333333335 3013.3333333333335">
			
			<g transform="scale(6.666666666666667) translate(10, 10)">
				<defs id="SvgjsDefs2020"><linearGradient id="SvgjsLinearGradient2029"><stop id="SvgjsStop2030" stop-color="#905e26" offset="0"></stop><stop id="SvgjsStop2031" stop-color="#f5ec9b" offset="0.5"></stop><stop id="SvgjsStop2032" stop-color="#905e26" offset="1"></stop></linearGradient><linearGradient id="SvgjsLinearGradient2033"><stop id="SvgjsStop2034" stop-color="#905e26" offset="0"></stop><stop id="SvgjsStop2035" stop-color="#f5ec9b" offset="0.5"></stop><stop id="SvgjsStop2036" stop-color="#905e26" offset="1"></stop></linearGradient><linearGradient id="SvgjsLinearGradient2037"><stop id="SvgjsStop2038" stop-color="#905e26" offset="0"></stop><stop id="SvgjsStop2039" stop-color="#f5ec9b" offset="0.5"></stop><stop id="SvgjsStop2040" stop-color="#905e26" offset="1"></stop></linearGradient><linearGradient id="SvgjsLinearGradient2041"><stop id="SvgjsStop2042" stop-color="#905e26" offset="0"></stop><stop id="SvgjsStop2043" stop-color="#f5ec9b" offset="0.5"></stop><stop id="SvgjsStop2044" stop-color="#905e26" offset="1"></stop></linearGradient></defs><g id="SvgjsG2021" featureKey="rootContainer" transform="matrix(1,0,0,1,0,0)" fill="url(#SvgjsLinearGradient2029)"><path xmlns="http://www.w3.org/2000/svg" fill-rule="evenodd" d=" M0,0 H450 V432 H0,0 z M2,2 H448 V430 H2,2 z M6,6 H444 V426 H6 z M8,8 H442 V424 H6,8 z "></path></g><g id="SvgjsG2022" featureKey="symbolFeature-0" transform="matrix(2.7977619526616166,0,0,2.7977619526616166,85.1119077032266,36.01119023669192)" fill="url(#SvgjsLinearGradient2033)"><g xmlns="http://www.w3.org/2000/svg"><g><path d="M32.458,48.731c-1.78-0.538-3.291-1.305-4.506-2.287V79.9c1.157,1.094,2.671,1.938,4.506,2.522V48.731z"></path><path d="M24.98,84.014v2.163c1.029,7.89,10.092,8.733,12.17,8.823v-4.682C35.262,90.234,27.665,89.544,24.98,84.014z"></path><path d="M24.98,36.424v44.602c0.99,7.492,10.09,8.343,12.169,8.438V42.726C35.263,42.641,27.665,41.952,24.98,36.424z     M27.094,44.466l0.729,0.717c1.279,1.258,3.022,2.205,5.179,2.815l0.312,0.088v35.48l-0.544-0.152    c-2.295-0.643-4.161-1.661-5.549-3.025l-0.128-0.127L27.094,44.466L27.094,44.466z"></path><polygon points="68.691,27.391 43.909,42.404 43.909,81.457 68.691,66.441   "></polygon><path d="M71.584,15.919l-9.162-6.426V5L24.98,27.684v5.752c0.992,7.509,10.092,8.346,12.169,8.435v-5.36    c-1.815-0.08-8.927-0.738-11.404-6.131L60.357,9.403l10.188,7.145L38.007,36.262v58.49L75.02,72.326V13.837L71.584,15.919z     M69.549,66.924L43.051,82.979V41.921L69.549,25.87V66.924z"></path></g></g></g><g id="SvgjsG2023" featureKey="nameFeature-0" transform="matrix(1.2508919127211457,0,0,1.2508919127211457,48.4433408643515,305.2500582088255)" fill="url(#SvgjsLinearGradient2037)"><path d="M15.2484 40.144805 l-0.755976 -0.000352 l-10.2428 -24.6196 l0 22.8956 c0 0.498008 0.369609 0.956016 0.964024 0.956016 l1.036016 0 c0.186406 0 0.316016 0.129609 0.316016 0.316016 c0 0.178008 -0.129609 0.307617 -0.316016 0.307617 l-4.6896 0 c-0.186016 0 -0.315625 -0.129609 -0.315625 -0.307617 c0 -0.186406 0.129609 -0.316016 0.315625 -0.316016 l1.036016 0 c0.594416 0 0.964024 -0.458008 0.964024 -0.956016 l0 -23.2012 c0 -0.498008 -0.369609 -0.956016 -0.964024 -0.956016 l-1.036016 0 c-0.186016 0 -0.315625 -0.129609 -0.315625 -0.315625 c0 -0.178008 0.129609 -0.307617 0.315625 -0.307617 l5.564 0 l9.144 21.9784 l8.5636 -21.9784 l5.48 0 c0.186016 0 0.315625 0.129609 0.315625 0.316016 c0 0.178008 -0.129609 0.307617 -0.315625 0.307617 l-1.036016 0 c-0.594416 0 -0.964024 0.458008 -0.964024 0.956016 l0 23.2012 c0 0.498008 0.369609 0.956016 0.964024 0.956016 l1.036016 0 c0.186016 0 0.315625 0.129609 0.315625 0.307617 c0 0.186406 -0.129609 0.316016 -0.315625 0.316016 l-7.4056 0 c-0.186406 0 -0.316016 -0.129609 -0.316016 -0.316016 c0 -0.178008 0.129609 -0.307617 0.316016 -0.307617 l1.036016 0 c0.590392 0 0.95918 -0.451212 0.963984 -0.946016 l0 -23.1228 z M58.8884 13.64 c0.178008 0 0.306758 0.129609 0.306758 0.307617 c0 0.186016 -0.129609 0.315625 -0.307617 0.315625 l-0.830392 0 c-0.618008 0 -1.14922 0.338008 -1.42242 0.931212 l-6.756 13.1428 l0 10.0832 c0 0.498008 0.369609 0.956016 0.964024 0.956016 l1.036016 0 c0.186016 0 0.315625 0.129609 0.315625 0.307617 c0 0.186406 -0.129609 0.316016 -0.315625 0.316016 l-7.4056 0 c-0.186016 0 -0.315625 -0.129609 -0.315625 -0.316016 c0 -0.178008 0.129609 -0.307617 0.316016 -0.307617 l1.036016 0 c0.594416 0 0.964024 -0.458008 0.964024 -0.956016 l0 -9.3448 l-7.2484 -13.8816 c-0.273203 -0.498008 -0.609608 -0.931212 -1.449608 -0.931212 l-0.64 0 c-0.186406 0 -0.316016 -0.129609 -0.316016 -0.315625 c0 -0.178008 0.129609 -0.307617 0.316016 -0.307617 l7.68 0 c0.178008 0 0.307617 0.129609 0.307617 0.307617 c0 0.186016 -0.129609 0.315625 -0.307617 0.315625 l-1.074416 0 c-0.685196 0 -0.843984 0.4384 -0.58758 0.931212 l6.3276 12.4764 l6.3596 -12.4764 c0.233984 -0.449608 0.038789 -0.93082 -0.706016 -0.93082 l-0.852384 0 c-0.186016 0 -0.315625 -0.129609 -0.315625 -0.315625 c0 -0.178008 0.129609 -0.307617 0.316016 -0.307617 l4.6056 0 z M82.586 33.0316 c0.178008 0 0.308008 0.129258 0.308008 0.315664 l0 6.6524 l-17.208 0 c-0.186016 0 -0.315625 -0.129609 -0.315625 -0.316016 c0 -0.178008 0.129609 -0.307617 0.315625 -0.307617 l1.036016 0 c0.581212 0 0.96242 -0.435584 0.96242 -0.923592 l0 -23.2628 c0 -0.488788 -0.379609 -0.926796 -0.96242 -0.926796 l-1.036016 0 c-0.186016 0 -0.315625 -0.129609 -0.315625 -0.307617 c0 -0.186406 0.129609 -0.316016 0.315625 -0.316016 l7.404 0 c0.186016 0 0.315625 0.129609 0.315625 0.316016 c0 0.178008 -0.129609 0.307617 -0.315625 0.307617 l-1.036016 0 c-0.581212 0 -0.96242 0.438008 -0.96242 0.923592 l0 23.2628 c0 0.487188 0.379609 0.927188 0.96242 0.927188 l5.2964 0 c3.255196 0 4.92 -2.609608 4.92 -5.3032 l0 -0.725584 c0 -0.186406 0.129609 -0.316016 0.315625 -0.316016 z M97.1516 39.376408 c0.186016 0 0.315625 0.129219 0.315625 0.307226 c0 0.186406 -0.129609 0.316016 -0.315625 0.316016 l-7.404 0 c-0.186016 0 -0.315625 -0.129609 -0.315625 -0.316016 c0 -0.178008 0.129609 -0.307617 0.315625 -0.307617 l1.036016 0 c0.581212 0 0.96242 -0.435584 0.96242 -0.923592 l0 -23.2628 c0 -0.488788 -0.379609 -0.926796 -0.96242 -0.926796 l-1.036016 0 c-0.186016 0 -0.315625 -0.129609 -0.315625 -0.307617 c0 -0.186406 0.129609 -0.316016 0.315625 -0.316016 l7.404 0 c0.186016 0 0.315625 0.129609 0.315625 0.316016 c0 0.178008 -0.129609 0.307617 -0.315625 0.307617 l-1.036016 0 c-0.581212 0 -0.96242 0.438008 -0.96242 0.923592 l0 23.2628 c0 0.487188 0.379609 0.927188 0.96242 0.927188 l1.036016 0 z M105.048 13.64 l16.87524 0.000039 l0 6.9696 c0 0.186406 -0.129609 0.316016 -0.315625 0.316016 c-0.178008 0 -0.307617 -0.129609 -0.307617 -0.316016 l0 -1.61922 c0 -2.76 -1.64 -4.7268 -4.92 -4.7268 l-4.9644 0 c-0.581212 0 -0.96242 0.438008 -0.96242 0.923592 l0 10.7452 l3.3 0 c3.26078 0 3.622384 -1.135196 3.622384 -2.9916 l0 -0.365586 c0 -0.178008 0.138008 -0.316016 0.316016 -0.316016 s0.316016 0.138008 0.316016 0.316016 l0 7.3544 c0 0.178008 -0.138008 0.316016 -0.316016 0.316016 s-0.316016 -0.129609 -0.316016 -0.34082 l0 -0.397188 c0 -1.783592 -0.344805 -2.935196 -3.621992 -2.935196 l-3.3 0 l0 11.8772 c0 0.487188 0.379609 0.927188 0.96242 0.927188 l2.234416 0 c0.186406 0 0.316016 0.129609 0.316016 0.316016 c0 0.178008 -0.129609 0.307617 -0.316016 0.307617 l-8.6024 0 c-0.186016 0 -0.315625 -0.129609 -0.315625 -0.316016 c0 -0.178008 0.129609 -0.307617 0.315625 -0.307617 l1.036016 0 c0.581212 0 0.96242 -0.435584 0.96242 -0.923592 l0 -23.2628 c0 -0.488788 -0.379609 -0.926796 -0.96242 -0.926796 l-1.036016 0 c-0.186016 0 -0.315625 -0.129609 -0.315625 -0.307617 c0 -0.186406 0.129609 -0.316016 0.315625 -0.316016 z M148.448 32.7144 c0.178008 0 0.308008 0.130469 0.308008 0.316875 l0 6.9696 l-18.004 0 c-0.186016 0 -0.315625 -0.129609 -0.315625 -0.316016 c0 -0.178008 0.129609 -0.307617 0.315625 -0.307617 l1.036016 0 c0.581212 0 0.96242 -0.438008 0.96242 -0.923592 l0 -23.2628 c0 -0.487188 -0.379609 -0.927188 -0.96242 -0.927188 l-1.036016 0 c-0.186016 0 -0.315625 -0.129609 -0.315625 -0.307617 c0 -0.186406 0.129609 -0.316016 0.315625 -0.316016 l17.8468 0 l0 6.9696 c0 0.186406 -0.129609 0.316016 -0.315625 0.316016 c-0.178008 0 -0.307617 -0.129609 -0.307617 -0.316016 l0 -1.61922 c0 -2.76 -1.64 -4.7268 -4.92 -4.7268 l-5.9356 0 c-0.581212 0 -0.96242 0.435584 -0.96242 0.923592 l0 10.7452 l3.175584 0 c3.26078 0 3.621992 -1.135196 3.621992 -2.9916 l0 -0.365586 c0 -0.178008 0.138008 -0.316016 0.316016 -0.316016 s0.316016 0.138008 0.316016 0.316016 l0 7.3544 c0 0.178008 -0.138008 0.316016 -0.316016 0.316016 s-0.316016 -0.129609 -0.316016 -0.34082 l0 -0.397188 c0 -1.783592 -0.344805 -2.935196 -3.621992 -2.935196 l-3.175584 0 l0 11.8772 c0 0.488788 0.379609 0.926796 0.96242 0.926796 l6.0924 0 c3.28 0 4.92 -1.966796 4.92 -4.7268 l0 -1.61922 c0 -0.186406 0.129609 -0.316016 0.315625 -0.316016 z M158.212 13.64 l16.87524 0.000039 l0 6.9696 c0 0.186406 -0.129609 0.316016 -0.315625 0.316016 c-0.178008 0 -0.307617 -0.129609 -0.307617 -0.316016 l0 -1.61922 c0 -2.76 -1.64 -4.7268 -4.92 -4.7268 l-4.9644 0 c-0.581212 0 -0.96242 0.438008 -0.96242 0.923592 l0 10.7452 l3.3 0 c3.26078 0 3.622384 -1.135196 3.622384 -2.9916 l0 -0.365586 c0 -0.178008 0.138008 -0.316016 0.316016 -0.316016 s0.316016 0.138008 0.316016 0.316016 l0 7.3544 c0 0.178008 -0.138008 0.316016 -0.316016 0.316016 s-0.316016 -0.129609 -0.316016 -0.34082 l0 -0.397188 c0 -1.783592 -0.344805 -2.935196 -3.621992 -2.935196 l-3.3 0 l0 11.8772 c0 0.487188 0.379609 0.927188 0.96242 0.927188 l2.234416 0 c0.186406 0 0.316016 0.129609 0.316016 0.316016 c0 0.178008 -0.129609 0.307617 -0.316016 0.307617 l-8.6024 0 c-0.186016 0 -0.315625 -0.129609 -0.315625 -0.316016 c0 -0.178008 0.129609 -0.307617 0.315625 -0.307617 l1.036016 0 c0.581212 0 0.96242 -0.435584 0.96242 -0.923592 l0 -23.2628 c0 -0.488788 -0.379609 -0.926796 -0.96242 -0.926796 l-1.036016 0 c-0.186016 0 -0.315625 -0.129609 -0.315625 -0.307617 c0 -0.186406 0.129609 -0.316016 0.315625 -0.316016 z M196.5428 13.3904 c7.5848 0 11.996 5.6512 11.996 13.2912 s-4.4112 13.5764 -11.996 13.5764 c-7.5932 0 -11.996 -5.9364 -11.996 -13.5764 s4.4028 -13.2912 11.996 -13.2912 z M196.5428 39.571172 c6.1916 0 8.3776 -6.1696 8.3776 -12.8896 s-2.186016 -12.604 -8.3776 -12.604 s-8.3776 5.884 -8.3776 12.604 s2.186016 12.8896 8.3776 12.8896 z M233.958 33.0316 c0.178008 0 0.308008 0.129258 0.308008 0.315664 l0 6.6524 l-17.208 0 c-0.186016 0 -0.315625 -0.129609 -0.315625 -0.316016 c0 -0.178008 0.129609 -0.307617 0.315625 -0.307617 l1.036016 0 c0.581212 0 0.96242 -0.435584 0.96242 -0.923592 l0 -23.2628 c0 -0.488788 -0.379609 -0.926796 -0.96242 -0.926796 l-1.036016 0 c-0.186016 0 -0.315625 -0.129609 -0.315625 -0.307617 c0 -0.186406 0.129609 -0.316016 0.315625 -0.316016 l7.404 0 c0.186016 0 0.315625 0.129609 0.315625 0.316016 c0 0.178008 -0.129609 0.307617 -0.315625 0.307617 l-1.036016 0 c-0.581212 0 -0.96242 0.438008 -0.96242 0.923592 l0 23.2628 c0 0.487188 0.379609 0.927188 0.96242 0.927188 l5.2964 0 c3.255196 0 4.92 -2.609608 4.92 -5.3032 l0 -0.725584 c0 -0.186406 0.129609 -0.316016 0.315625 -0.316016 z M248.5236 39.376408 c0.186016 0 0.315625 0.129219 0.315625 0.307226 c0 0.186406 -0.129609 0.316016 -0.315625 0.316016 l-7.404 0 c-0.186016 0 -0.315625 -0.129609 -0.315625 -0.316016 c0 -0.178008 0.129609 -0.307617 0.315625 -0.307617 l1.036016 0 c0.581212 0 0.96242 -0.435584 0.96242 -0.923592 l0 -23.2628 c0 -0.488788 -0.379609 -0.926796 -0.96242 -0.926796 l-1.036016 0 c-0.186016 0 -0.315625 -0.129609 -0.315625 -0.307617 c0 -0.186406 0.129609 -0.316016 0.315625 -0.316016 l7.404 0 c0.186016 0 0.315625 0.129609 0.315625 0.316016 c0 0.178008 -0.129609 0.307617 -0.315625 0.307617 l-1.036016 0 c-0.581212 0 -0.96242 0.438008 -0.96242 0.923592 l0 23.2628 c0 0.487188 0.379609 0.927188 0.96242 0.927188 l1.036016 0 z M269.0488 13.3904 c7.5848 0 11.996 5.6512 11.996 13.2912 s-4.4112 13.5764 -11.996 13.5764 c-7.5932 0 -11.996 -5.9364 -11.996 -13.5764 s4.4028 -13.2912 11.996 -13.2912 z M269.0488 39.571172 c6.1916 0 8.3776 -6.1696 8.3776 -12.8896 s-2.186016 -12.604 -8.3776 -12.604 s-8.3776 5.884 -8.3776 12.604 s2.186016 12.8896 8.3776 12.8896 z"></path></g><g id="SvgjsG2024" featureKey="sloganFeature-0" transform="matrix(0.37522144102890137,0,0,0.37522144102890137,84.83490236555741,373.82371557046457)" fill="url(#SvgjsLinearGradient2041)"><path d="M12.14 6 l-4.94 7.78 l0 6.22 l-1.8 0 l0 -6.2 l-4.96 -7.8 l2.04 0 l3.82 6.02 l3.8 -6.02 l2.04 0 z M26.843 20.2 c-4 0 -7.18 -3.2 -7.18 -7.2 s3.18 -7.2 7.18 -7.2 s7.18 3.2 7.18 7.2 s-3.18 7.2 -7.18 7.2 z M26.843 18.48 c3.04 0 5.32 -2.38 5.32 -5.48 s-2.28 -5.48 -5.32 -5.48 c-3.06 0 -5.34 2.38 -5.34 5.48 s2.28 5.48 5.34 5.48 z M42.666 14.46 l0 -8.46 l1.8 0 l0 8.32 c0 2.7 1.56 4.08 3.76 4.08 s3.78 -1.38 3.78 -4.08 l0 -8.32 l1.78 0 l0 8.46 c0 3.64 -2.08 5.74 -5.56 5.74 c-3.46 0 -5.56 -2.1 -5.56 -5.74 z M73.169 11.06 c0 2.26 -1.06 4.2 -3.24 4.84 l3.02 4.1 l-2.16 0 l-2.86 -3.88 l-3.14 0 l0 3.88 l-1.8 0 l0 -14 l5.28 0 c3.3 0 4.9 2.28 4.9 5.06 z M64.789 7.68 l0 6.74 l3.4 0 c2.26 0 3.18 -1.66 3.18 -3.36 s-0.92 -3.38 -3.18 -3.38 l-3.4 0 z M96.475 18.28 l5.92 0 l-0.12 1.72 l-7.6 0 l0 -14 l1.8 0 l0 12.28 z M110.518 20 l0 -14 l1.8 0 l0 14 l-1.8 0 z M123.441 7.72 l0 4.32 l4.28 0 l0 1.72 l-4.28 0 l0 6.24 l-1.8 0 l0 -14 l7.96 0 l0.12 1.72 l-6.28 0 z M146.644 18.28 l0.12 1.72 l-8.52 0 l0 -14 l8.12 0 l0.14 1.72 l-6.46 0 l0 3.42 l4.38 0 l0 1.72 l-4.38 0 l0 5.42 l6.6 0 z M174.71 20.2 c-4 0 -7.18 -3.2 -7.18 -7.2 s3.18 -7.2 7.18 -7.2 s7.18 3.2 7.18 7.2 s-3.18 7.2 -7.18 7.2 z M174.71 18.48 c3.04 0 5.32 -2.38 5.32 -5.48 s-2.28 -5.48 -5.32 -5.48 c-3.06 0 -5.34 2.38 -5.34 5.48 s2.28 5.48 5.34 5.48 z M200.853 11.06 c0 2.26 -1.06 4.2 -3.24 4.84 l3.02 4.1 l-2.16 0 l-2.86 -3.88 l-3.14 0 l0 3.88 l-1.8 0 l0 -14 l5.28 0 c3.3 0 4.9 2.28 4.9 5.06 z M192.473 7.68 l0 6.74 l3.4 0 c2.26 0 3.18 -1.66 3.18 -3.36 s-0.92 -3.38 -3.18 -3.38 l-3.4 0 z M221.176 11.88 l0 6.86 c-1.08 0.82 -2.56 1.46 -4.9 1.46 c-4.4 0 -7.26 -3.2 -7.26 -7.2 s3.02 -7.2 7.22 -7.2 c1.94 0 3.54 0.7 4.8 1.7 l-0.94 1.36 c-1.1 -0.88 -2.46 -1.34 -3.86 -1.34 c-3 0 -5.34 2.28 -5.34 5.48 s2.16 5.46 5.38 5.46 c1.22 0 2.26 -0.26 3.1 -0.66 l0 -4.18 l-2.7 0 l0.12 -1.74 l4.38 0 z M239.499 20 l-1.22 -2.84 l-6.24 0 l-1.22 2.84 l-1.92 0 l6.16 -14.2 l0.2 0 l6.16 14.2 l-1.92 0 z M232.759 15.48 l4.8 0 l-2.4 -5.54 z M258.962 6 l1.8 0 l0 14.2 l-0.22 0 l-9.4 -9.98 l0 9.78 l-1.78 0 l0 -14.2 l0.2 0 l9.4 9.98 l0 -9.78 z M270.085 20 l0 -14 l1.8 0 l0 14 l-1.8 0 z M288.948 6 l0 0.2 l-5.84 12.08 l5.72 0 l-0.12 1.72 l-8.3 0 l0 -0.2 l5.82 -12.08 l-5.62 0 l0.14 -1.72 l8.2 0 z M305.871 18.28 l0.12 1.72 l-8.52 0 l0 -14 l8.12 0 l0.14 1.72 l-6.46 0 l0 3.42 l4.38 0 l0 1.72 l-4.38 0 l0 5.42 l6.6 0 z M319.334 6 c4.64 0 7.2 2.84 7.2 7 s-2.56 7 -7.2 7 l-4.8 0 l0 -14 l4.8 0 z M319.434 18.28 c3.4 0 5.3 -2.12 5.3 -5.28 c0 -3.18 -1.9 -5.28 -5.3 -5.28 l-3.1 0 l0 10.56 l3.1 0 z M335.737 17.76 l1.48 0 l-1.26 4.02 l-1.24 0 z M369.223 6 l-4.94 7.78 l0 6.22 l-1.8 0 l0 -6.2 l-4.96 -7.8 l2.04 0 l3.82 6.02 l3.8 -6.02 l2.04 0 z M383.926 20.2 c-4 0 -7.18 -3.2 -7.18 -7.2 s3.18 -7.2 7.18 -7.2 s7.18 3.2 7.18 7.2 s-3.18 7.2 -7.18 7.2 z M383.926 18.48 c3.04 0 5.32 -2.38 5.32 -5.48 s-2.28 -5.48 -5.32 -5.48 c-3.06 0 -5.34 2.38 -5.34 5.48 s2.28 5.48 5.34 5.48 z M399.749 14.46 l0 -8.46 l1.8 0 l0 8.32 c0 2.7 1.56 4.08 3.76 4.08 s3.78 -1.38 3.78 -4.08 l0 -8.32 l1.78 0 l0 8.46 c0 3.64 -2.08 5.74 -5.56 5.74 c-3.46 0 -5.56 -2.1 -5.56 -5.74 z M430.252 11.06 c0 2.26 -1.06 4.2 -3.24 4.84 l3.02 4.1 l-2.16 0 l-2.86 -3.88 l-3.14 0 l0 3.88 l-1.8 0 l0 -14 l5.28 0 c3.3 0 4.9 2.28 4.9 5.06 z M421.872 7.68 l0 6.74 l3.4 0 c2.26 0 3.18 -1.66 3.18 -3.36 s-0.92 -3.38 -3.18 -3.38 l-3.4 0 z M453.558 18.28 l5.92 0 l-0.12 1.72 l-7.6 0 l0 -14 l1.8 0 l0 12.28 z M476.001 18.28 l0.12 1.72 l-8.52 0 l0 -14 l8.12 0 l0.14 1.72 l-6.46 0 l0 3.42 l4.38 0 l0 1.72 l-4.38 0 l0 5.42 l6.6 0 z M496.264 11.88 l0 6.86 c-1.08 0.82 -2.56 1.46 -4.9 1.46 c-4.4 0 -7.26 -3.2 -7.26 -7.2 s3.02 -7.2 7.22 -7.2 c1.94 0 3.54 0.7 4.8 1.7 l-0.94 1.36 c-1.1 -0.88 -2.46 -1.34 -3.86 -1.34 c-3 0 -5.34 2.28 -5.34 5.48 s2.16 5.46 5.38 5.46 c1.22 0 2.26 -0.26 3.1 -0.66 l0 -4.18 l-2.7 0 l0.12 -1.74 l4.38 0 z M514.587 20 l-1.22 -2.84 l-6.24 0 l-1.22 2.84 l-1.92 0 l6.16 -14.2 l0.2 0 l6.16 14.2 l-1.92 0 z M507.847 15.48 l4.8 0 l-2.4 -5.54 z M523.89 13 c0 -4.04 3.18 -7.2 7.18 -7.2 c1.68 0 3.28 0.56 4.7 1.64 l-0.9 1.4 c-1.18 -0.9 -2.4 -1.34 -3.8 -1.34 c-3.02 0 -5.38 2.42 -5.38 5.5 s2.38 5.5 5.38 5.5 c1.52 0 2.82 -0.48 3.8 -1.42 l0.92 1.38 c-1.22 1.1 -2.94 1.74 -4.72 1.74 c-4 0 -7.18 -3.18 -7.18 -7.2 z M554.773 6 l-4.94 7.78 l0 6.22 l-1.8 0 l0 -6.2 l-4.96 -7.8 l2.04 0 l3.82 6.02 l3.8 -6.02 l2.04 0 z M580.939 6 c3.28 0 4.82 2.48 4.82 5.1 s-1.54 5.1 -4.82 5.1 l-3.5 0 l0 3.8 l-1.8 0 l0 -14 l5.3 0 z M580.859 14.48 c1.84 0 3.06 -1.42 3.06 -3.38 s-1.22 -3.38 -3.06 -3.38 l-3.42 0 l0 6.76 l3.42 0 z M604.702 11.06 c0 2.26 -1.06 4.2 -3.24 4.84 l3.02 4.1 l-2.16 0 l-2.86 -3.88 l-3.14 0 l0 3.88 l-1.8 0 l0 -14 l5.28 0 c3.3 0 4.9 2.28 4.9 5.06 z M596.322 7.68 l0 6.74 l3.4 0 c2.26 0 3.18 -1.66 3.18 -3.36 s-0.92 -3.38 -3.18 -3.38 l-3.4 0 z M620.045 20.2 c-4 0 -7.18 -3.2 -7.18 -7.2 s3.18 -7.2 7.18 -7.2 s7.18 3.2 7.18 7.2 s-3.18 7.2 -7.18 7.2 z M620.045 18.48 c3.04 0 5.32 -2.38 5.32 -5.48 s-2.28 -5.48 -5.32 -5.48 c-3.06 0 -5.34 2.38 -5.34 5.48 s2.28 5.48 5.34 5.48 z M644.748 7.72 l-4.08 0 l0 12.28 l-1.8 0 l0 -12.28 l-4.1 0 l0.12 -1.72 l9.74 0 z M661.271 18.28 l0.12 1.72 l-8.52 0 l0 -14 l8.12 0 l0.14 1.72 l-6.46 0 l0 3.42 l4.38 0 l0 1.72 l-4.38 0 l0 5.42 l6.6 0 z M669.374 13 c0 -4.04 3.18 -7.2 7.18 -7.2 c1.68 0 3.28 0.56 4.7 1.64 l-0.9 1.4 c-1.18 -0.9 -2.4 -1.34 -3.8 -1.34 c-3.02 0 -5.38 2.42 -5.38 5.5 s2.38 5.5 5.38 5.5 c1.52 0 2.82 -0.48 3.8 -1.42 l0.92 1.38 c-1.22 1.1 -2.94 1.74 -4.72 1.74 c-4 0 -7.18 -3.18 -7.18 -7.2 z M698.557 7.72 l-4.08 0 l0 12.28 l-1.8 0 l0 -12.28 l-4.1 0 l0.12 -1.72 l9.74 0 z M715.08 18.28 l0.12 1.72 l-8.52 0 l0 -14 l8.12 0 l0.14 1.72 l-6.46 0 l0 3.42 l4.38 0 l0 1.72 l-4.38 0 l0 5.42 l6.6 0 z M728.543 6 c4.64 0 7.2 2.84 7.2 7 s-2.56 7 -7.2 7 l-4.8 0 l0 -14 l4.8 0 z M728.643 18.28 c3.4 0 5.3 -2.12 5.3 -5.28 c0 -3.18 -1.9 -5.28 -5.3 -5.28 l-3.1 0 l0 10.56 l3.1 0 z M745.526 20.1 c-0.7 0 -1.2 -0.5 -1.2 -1.18 c0 -0.66 0.5 -1.16 1.2 -1.16 c0.64 0 1.14 0.5 1.14 1.16 c0 0.68 -0.5 1.18 -1.14 1.18 z"></path></g>
			</g>
		</svg>
	